<?xml version="1.0" standalone="no"?>
<!DOCTYPE svg PUBLIC "-//W3C//DTD SVG 20010904//EN"
 "http://www.w3.org/TR/2001/REC-SVG-20010904/DTD/svg10.dtd">
<svg version="1.0" xmlns="http://www.w3.org/2000/svg"
 width="512.000000pt" height="512.000000pt" viewBox="0 0 512.000000 512.000000"
 preserveAspectRatio="xMidYMid meet">
<metadata>
Created by potrace 1.14, written by Peter Selinger 2001-2017
</metadata>
<g transform="translate(0.000000,512.000000) scale(0.100000,-0.100000)"
fill="#000000" stroke="none">
<path d="M2393 5100 c-142 -37 -265 -110 -364 -217 -42 -47 -325 -434 -399
-547 -8 -13 -23 -34 -33 -47 -9 -13 -106 -149 -215 -302 -108 -152 -237 -334
-287 -404 -147 -206 -170 -252 -181 -365 -13 -119 39 -242 149 -352 l72 -72
-58 -45 c-129 -97 -275 -272 -360 -430 -57 -106 -79 -168 -196 -544 -22 -71
-85 -274 -140 -450 -129 -416 -130 -417 -137 -489 -9 -77 -9 -116 1 -191 20
-162 121 -351 241 -451 25 -22 51 -44 57 -49 18 -16 96 -65 102 -65 4 0 27
-10 53 -22 26 -12 83 -29 127 -39 74 -16 201 -17 1741 -18 1630 -1 1662 -1
1740 19 145 37 234 85 342 184 179 166 265 417 226 656 -7 41 -33 143 -59 225
-26 83 -94 301 -152 485 -58 184 -120 385 -139 447 -41 131 -74 215 -117 298
-88 166 -227 334 -369 443 l-48 36 56 56 c150 149 197 310 140 472 -13 36 -37
86 -53 110 -16 24 -75 108 -130 188 -95 138 -225 326 -438 635 -439 638 -446
646 -548 719 -142 101 -252 137 -427 141 -97 3 -141 -1 -197 -15z"/>
</g>
</svg>
